<?xml version="1.0" encoding="UTF-8"?>
<svg version="1.1" xmlns="http://www.w3.org/2000/svg" width="512" height="512">
<path d="M0 0 C9.60451531 5.69089973 15.45351772 13.85354147 19.109375 24.2109375 C19.39084885 24.98586044 19.67232269 25.76078339 19.96232605 26.55918884 C20.54979615 28.18508484 21.13187246 29.8129391 21.70874023 31.44262695 C22.5905843 33.92786829 23.49418225 36.40441273 24.40039062 38.88085938 C24.9713648 40.46958092 25.54107051 42.05875903 26.109375 43.6484375 C26.37804886 44.38296646 26.64672272 45.11749542 26.92353821 45.87428284 C28.34789759 49.94494289 29.52162813 53.516251 28.77734375 57.86328125 C24.96039841 63.23474256 19.65204532 64.76028904 13.6640625 66.8046875 C12.64799927 67.16460785 11.63193604 67.5245282 10.58508301 67.89535522 C7.21617004 69.08540727 3.84062025 70.25535587 0.46484375 71.42578125 C-1.9226392 72.26553136 -4.30959333 73.10678629 -6.69604492 73.94946289 C-11.0595786 75.48887151 -15.42443329 77.02434107 -19.79166126 78.55322552 C-31.07088405 82.50227544 -42.32131626 86.53115062 -53.5718689 90.56100464 C-59.41886316 92.65409308 -65.26810641 94.74087682 -71.1171875 96.828125 C-73.46957366 97.66777836 -75.82194997 98.50745934 -78.17431641 99.34716797 C-79.33819885 99.76262878 -80.5020813 100.1780896 -81.70123291 100.60614014 C-91.04308153 103.94116147 -100.38432937 107.27786544 -109.72567749 110.61428833 C-115.55797334 112.69737111 -121.39031722 114.78031937 -127.22265625 116.86328125 C-129.55598981 117.69661394 -131.88932315 118.52994727 -134.22265625 119.36328125 C-260.44824218 164.44384765 -260.44824218 164.44384765 -264.0811615 165.74130249 C-266.50009011 166.60521645 -268.91900494 167.46916897 -271.33790588 168.3331604 C-277.25513972 170.44664585 -283.1725959 172.55950391 -289.09057617 174.67089844 C-299.02094139 178.21448869 -308.95009474 181.76109907 -318.86920166 185.33610535 C-322.83254035 186.764419 -326.79700588 188.1895898 -330.76153564 189.61459351 C-332.59334134 190.27416529 -334.42453178 190.93544862 -336.25506592 191.59854126 C-338.7388751 192.4982563 -341.22464662 193.39232688 -343.7109375 194.28515625 C-344.43615097 194.54969101 -345.16136444 194.81422577 -345.90855408 195.08677673 C-348.82214459 196.12770083 -351.10246367 196.86328125 -354.22265625 196.86328125 C-354.22265625 197.52328125 -354.22265625 198.18328125 -354.22265625 198.86328125 C-353.04186266 198.86214209 -353.04186266 198.86214209 -351.83721465 198.86097991 C-305.17421664 198.81621683 -258.51122097 198.78190461 -211.84820579 198.76115059 C-206.24442557 198.7586492 -200.64064539 198.75606055 -195.03686523 198.75341797 C-193.92126072 198.75289335 -192.80565621 198.75236873 -191.65624551 198.75182821 C-173.59619504 198.7431273 -155.53615732 198.72735904 -137.47611441 198.70897566 C-118.94272871 198.6902679 -100.40934968 198.67916267 -81.87595493 198.67510426 C-70.44130175 198.67236103 -59.00668459 198.66369887 -47.5720425 198.64744832 C-39.7292475 198.63687063 -31.8864711 198.63368241 -24.04366948 198.6362785 C-19.5198618 198.63755856 -14.99611703 198.635606 -10.47232056 198.6248703 C-6.32614748 198.61510285 -2.18007933 198.61466895 1.96609869 198.62148346 C3.46157599 198.62232509 4.95705997 198.61981774 6.45252422 198.61351489 C20.37629702 198.55827029 33.30747995 199.1750324 44.10546875 208.9765625 C50.28378014 215.60108527 54.88481107 222.86035825 54.91435814 232.11697388 C54.91943268 232.96400281 54.92450722 233.81103174 54.92973554 234.68372822 C54.93048218 236.07222367 54.93048218 236.07222367 54.9312439 237.48876953 C54.93562615 238.47602366 54.9400084 239.4632778 54.94452345 240.48044872 C54.95790869 243.79816566 54.96408977 247.11585603 54.97021484 250.43359375 C54.97811613 252.80877299 54.9863851 255.18395103 54.99499512 257.55912781 C55.01895136 264.69439152 55.03414407 271.8296605 55.04705518 278.96495104 C55.0507692 280.98173982 55.05474228 282.99852791 55.05880785 285.01531601 C55.08404952 297.55015629 55.10609387 310.08499771 55.118536 322.61985779 C55.1214655 325.52212529 55.12442719 328.42439275 55.12744141 331.32666016 C55.12818746 332.04796981 55.12893351 332.76927947 55.12970217 333.512447 C55.14234409 345.18594064 55.17555258 356.85928156 55.21724324 368.53270388 C55.25973455 380.5291011 55.28323942 392.5254203 55.28845656 404.52189255 C55.29186284 411.25275676 55.30352474 417.98338245 55.3365593 424.71417236 C55.3666818 431.05077169 55.37293642 437.38695614 55.36117554 443.72361183 C55.36095515 446.04389812 55.3692314 448.36420389 55.38682938 450.68442345 C55.50208158 466.76069759 54.90309441 478.61406042 43.171875 490.734375 C33.41751196 499.40668798 22.78242573 500.17662968 10.23046875 500.19921875 C8.94170837 500.20587555 7.652948 500.21253235 6.32513428 500.21939087 C3.61206705 500.23129811 0.89912663 500.23507787 -1.81396484 500.23388672 C-5.28654138 500.23368243 -8.75830959 500.26112478 -12.23069382 500.29543114 C-15.55615254 500.32300725 -18.88145961 500.32184688 -22.20703125 500.32421875 C-23.45184265 500.33858978 -24.69665405 500.35296082 -25.97918701 500.36776733 C-27.13428772 500.36161407 -28.28938843 500.35546082 -29.47949219 500.34912109 C-31.00216705 500.35339615 -31.00216705 500.35339615 -32.55560303 500.35775757 C-35.94861632 499.72868699 -37.15500293 498.58117605 -39.22265625 495.86328125 C-39.22265625 494.87328125 -39.22265625 493.88328125 -39.22265625 492.86328125 C-44.17265625 492.86328125 -49.12265625 492.86328125 -54.22265625 492.86328125 C-54.55265625 494.51328125 -54.88265625 496.16328125 -55.22265625 497.86328125 C-58.58694873 500.1061429 -59.68489778 500.11487574 -63.61830807 500.12055016 C-65.30909746 500.13022349 -65.30909746 500.13022349 -67.03404421 500.14009225 C-68.27778749 500.13699505 -69.52153078 500.13389785 -70.80296326 500.13070679 C-72.12013071 500.1352379 -73.43729816 500.13976901 -74.79437977 500.14443743 C-78.45856931 500.15670488 -82.12266781 500.15640255 -85.78687322 500.15404868 C-89.73597656 500.15364143 -93.68505035 500.16467124 -97.63414001 500.17416382 C-105.3761706 500.19079785 -113.11817073 500.19627454 -120.86021768 500.19738857 C-127.15581484 500.19833839 -133.45140195 500.20244539 -139.74699593 500.20878983 C-157.59784784 500.22641271 -175.44867567 500.23562765 -193.29953634 500.23412888 C-194.26247402 500.23404897 -195.22541169 500.23396905 -196.2175293 500.23388672 C-197.18164425 500.23380496 -198.14575921 500.2337232 -199.13908977 500.23363896 C-214.7474952 500.23282689 -230.35580394 500.25194189 -245.96418142 500.28016345 C-261.99243711 500.30891515 -278.02064571 500.32270233 -294.04892784 500.3209759 C-303.0466975 500.32031254 -312.04436594 500.32578036 -321.04211235 500.347332 C-328.70751702 500.3655744 -336.37277465 500.36986648 -344.03819167 500.35631315 C-347.94654135 500.34979744 -351.85460921 500.34961509 -355.76293182 500.36701965 C-359.34788106 500.38281913 -362.93232667 500.37981757 -366.51726414 500.36245139 C-368.41405052 500.3579599 -370.31085296 500.37298529 -372.20757765 500.38893068 C-384.26871938 500.29252236 -394.44600355 497.39565336 -403.22265625 488.86328125 C-413.91054707 477.36244124 -413.78920918 465.1179199 -413.67675781 450.26708984 C-413.67562836 448.17697166 -413.6762651 446.08685189 -413.67852783 443.99673462 C-413.67967209 438.34447415 -413.65620921 432.69255554 -413.628232 427.04037428 C-413.60317041 421.12537351 -413.60087259 415.21036428 -413.59613037 409.2953186 C-413.58371459 398.10413066 -413.5509118 386.91309964 -413.51073241 375.72198069 C-413.46597126 362.97715249 -413.44401672 350.23231666 -413.42395067 337.48742938 C-413.38217802 311.27929312 -413.31185307 285.07129599 -413.22265625 258.86328125 C-414.43284424 258.57541748 -414.43284424 258.57541748 -415.66748047 258.28173828 C-416.73498535 258.02247559 -417.80249023 257.76321289 -418.90234375 257.49609375 C-420.48378174 257.11541748 -420.48378174 257.11541748 -422.09716797 256.72705078 C-434.25484532 253.36711777 -443.88906892 245.13880263 -450.68359375 234.625 C-458.26538955 221.02010246 -459.78321075 205.85889335 -455.66015625 190.80078125 C-450.95359206 177.91965821 -442.50764964 168.38661018 -431.22265625 160.86328125 C-431.53460938 159.98285156 -431.8465625 159.10242188 -432.16796875 158.1953125 C-432.75191406 156.45314453 -432.75191406 156.45314453 -433.34765625 154.67578125 C-433.93933594 152.95294922 -433.93933594 152.95294922 -434.54296875 151.1953125 C-435.30415292 147.46376024 -435.17275641 146.08930409 -433.22265625 142.86328125 C-430.25080956 140.28458405 -427.34002242 139.00515185 -423.64282227 137.71289062 C-421.94471909 137.11337837 -421.94471909 137.11337837 -420.21231079 136.50175476 C-418.97951385 136.074496 -417.74671692 135.64723724 -416.4765625 135.20703125 C-415.1706984 134.74864721 -413.86506998 134.28959127 -412.55966187 133.82991028 C-409.76623047 132.84762528 -406.97135828 131.86960248 -404.17526245 130.89492798 C-399.74066857 129.34890651 -395.30955032 127.79310085 -390.87915039 126.23510742 C-389.37828138 125.7073801 -387.87741163 125.17965489 -386.37654114 124.65193176 C-385.63163736 124.38999338 -384.88673359 124.128055 -384.11925697 123.85817909 C-381.84668443 123.05941248 -379.57379634 122.26154975 -377.30082703 121.46391296 C-363.8994869 116.75970317 -350.52544196 111.98150859 -337.16015625 107.17578125 C-332.85298582 105.62856863 -328.54562136 104.08189642 -324.23828125 102.53515625 C-323.17513702 102.15327652 -322.1119928 101.77139679 -321.01663208 101.37794495 C-308.4866929 96.87835181 -295.94854349 92.40176777 -283.41015625 87.92578125 C-282.24902313 87.51123688 -281.08789001 87.0966925 -279.89157104 86.66958618 C-274.01811287 84.57266844 -268.14457939 82.47596176 -262.27099609 80.37939453 C-255.25072345 77.87342994 -248.23077846 75.36654854 -241.2109375 72.859375 C-240.05654175 72.44707642 -238.902146 72.03477783 -237.71276855 71.60998535 C-234.21605893 70.36109946 -230.7193562 69.11219423 -227.22265625 67.86328125 C-214.36395767 63.27055217 -201.50525307 58.67784116 -188.6456604 54.08761597 C-165.7574484 45.91765205 -142.87125809 37.74221408 -119.99560547 29.53713989 C-113.48298863 27.20135921 -106.96993745 24.86678985 -100.45687866 22.53224182 C-94.51210209 20.40131623 -88.5676199 18.26957334 -82.62353516 16.13671875 C-76.80639629 14.04948796 -70.98851181 11.96434796 -65.16987038 9.88130951 C-62.07109851 8.77189997 -58.97274612 7.6613433 -55.875 6.54907227 C-52.44616838 5.3180709 -49.01619145 4.09031266 -45.5859375 2.86328125 C-44.58101761 2.50165894 -43.57609772 2.14003662 -42.54072571 1.76745605 C-27.90378047 -3.45718597 -14.72112461 -7.52872981 0 0 Z " fill="#060708" transform="translate(457.22265625,8.13671875)"/>
<path d="M0 0 C123.75 0 247.5 0 375 0 C375.103125 31.164375 375.20625 62.32875 375.3125 94.4375 C375.38078003 109.19359985 375.38078003 109.19359985 375.45043945 124.24780273 C375.47302246 136.2677002 375.47302246 136.2677002 375.47721863 141.89613342 C375.48187381 145.82421511 375.50059829 149.75195836 375.52787781 153.6799469 C375.56224289 158.69483189 375.57244319 163.70922668 375.56536138 168.72421849 C375.56684162 170.56189059 375.57671604 172.39958031 375.59607565 174.23715103 C375.78186139 192.73505107 375.78186139 192.73505107 368.59254932 200.52504635 C361.12736006 207.39204519 353.57871177 207.43045882 343.953125 207.40625 C342.08089264 207.42250427 342.08089264 207.42250427 340.1708374 207.43908691 C335.52090479 207.47909791 330.87106921 207.49314042 326.2210083 207.50531006 C321.6523362 207.51865949 317.08415934 207.5539651 312.515625 207.59375 C311.30626282 207.59072876 310.09690063 207.58770752 308.85089111 207.58459473 C307.73252869 207.59470581 306.61416626 207.60481689 305.46191406 207.61523438 C304.47709045 207.61728882 303.49226685 207.61934326 302.4776001 207.62145996 C299.97911503 207.81184699 299.97911503 207.81184699 298.22113037 209.27404785 C296.68856642 211.21912204 296.68856642 211.21912204 296 215 C291.05 215 286.1 215 281 215 C280.34 213.35 279.68 211.7 279 210 C274.51112575 205.89481676 269.06764396 206.59992621 263.3407135 206.66183472 C262.25444984 206.66153798 261.16818619 206.66124125 260.04900545 206.66093552 C256.40236963 206.66336119 252.75617632 206.68707277 249.10961914 206.71044922 C246.49796311 206.71616564 243.88630358 206.7204387 241.27464294 206.72337341 C235.64725437 206.73126907 230.01996909 206.74909952 224.39262581 206.77270126 C215.49785617 206.80913145 206.60319256 206.81455558 197.70835876 206.81497192 C194.66441818 206.8154952 191.62047766 206.81621883 188.57653713 206.81700325 C187.43553142 206.81728509 187.43553142 206.81728509 186.2714751 206.81757262 C177.61595441 206.82013087 168.96044436 206.82905825 160.30493164 206.84082031 C159.51382948 206.841887 158.72272732 206.84295368 157.90765237 206.84405269 C145.0823598 206.86213614 132.25721536 206.90323905 119.4320007 206.95016323 C106.2625896 206.99751099 93.09343096 207.0104149 79.92394537 206.9938184 C71.80133306 206.98486915 63.67977415 207.00428532 55.55734407 207.06009229 C49.33461944 207.10020433 43.11275206 207.0935717 36.88996315 207.06949043 C34.33654147 207.06713344 31.78305241 207.0802536 29.22980118 207.10984993 C25.74711849 207.14799607 22.26892412 207.13098288 18.78627014 207.10006714 C17.77216554 207.12443812 16.75806094 207.14880911 15.7132259 207.1739186 C9.02180877 207.0340543 9.02180877 207.0340543 6.05172622 204.02837777 C2.20878321 198.38174962 -0.10142361 193.19716644 -0.0390625 186.3125 C-0.03342285 185.50425781 -0.0277832 184.69601562 -0.02197266 183.86328125 C-0.01472168 183.24839844 -0.0074707 182.63351562 0 182 C0.69024084 181.99902319 1.38048169 181.99804638 2.09163892 181.99703997 C43.00950945 181.938756 83.92732639 181.86495015 124.84513136 181.77101372 C129.75922143 181.75974568 134.67331179 181.74860721 139.58740234 181.73754883 C140.56570088 181.73534514 141.54399943 181.73314146 142.55194338 181.730871 C158.38816928 181.69550774 174.22439513 181.67063812 190.06064586 181.64965298 C206.31256408 181.62788321 222.5644311 181.59482157 238.81630576 181.55129844 C248.84292732 181.52480204 258.8694851 181.50709184 268.89613993 181.50065396 C275.77369362 181.49539394 282.65116707 181.47915628 289.52867775 181.45433434 C293.49542765 181.44034043 297.462034 181.43114064 301.42881012 181.43499184 C305.06492051 181.43841487 308.70072487 181.42796406 312.33677264 181.40676448 C314.26596934 181.39904488 316.19520769 181.40591811 318.12440526 181.41341704 C327.4039027 181.33792917 336.54530156 180.54342092 343.54456425 173.83803558 C349.07134394 166.85839548 349.58607661 158.65687308 349.53344727 150.09960938 C349.54206284 148.95353714 349.55067841 147.8074649 349.55955505 146.62666321 C349.58212408 142.86545767 349.57549279 139.10500262 349.56640625 135.34375 C349.57164544 132.71398702 349.577923 130.08422593 349.58518982 127.45446777 C349.59700209 121.95378277 349.59138833 116.45330891 349.57641602 110.95263672 C349.5594914 104.61648509 349.57534679 98.28102228 349.6076389 91.94494581 C349.63766066 85.81956208 349.63949819 79.69449116 349.6301403 73.56904602 C349.62932249 70.97600916 349.63615323 68.38295776 349.65091133 65.78996277 C349.66840929 62.15960038 349.6537687 58.53069549 349.63110352 54.90039062 C349.64279572 53.83931595 349.65448792 52.77824127 349.66653442 51.68501282 C349.56222413 43.43694547 347.48138154 36.57299685 341.625 30.5625 C334.43422655 26.28227771 329.10182594 25.56570989 320.81427002 25.61904907 C319.69559595 25.6143691 318.57692188 25.60968913 317.42434859 25.60486734 C313.680239 25.59291234 309.93649506 25.6023768 306.19238281 25.61181641 C303.50658603 25.60775103 300.82081434 25.60251784 298.13502502 25.59588623 C291.60104467 25.58255995 285.0671678 25.58542117 278.53318343 25.59412415 C273.22444265 25.60090233 267.91573086 25.60181685 262.606987 25.5985527 C261.47319847 25.59786316 261.47319847 25.59786316 260.31650512 25.59715968 C258.78099204 25.5962005 257.24547897 25.59522786 255.70996591 25.5942419 C241.31957543 25.58569185 226.92924232 25.5955173 212.53886124 25.611643 C200.18587231 25.62505673 187.8329679 25.62270868 175.47998047 25.60888672 C161.13449612 25.59284284 146.78906197 25.58650433 132.4435699 25.59572351 C130.91496325 25.59667917 129.3863566 25.59762228 127.85774994 25.5985527 C127.10563489 25.59901553 126.35351983 25.59947836 125.57861342 25.59995521 C120.27297013 25.60254787 114.96735864 25.5981684 109.66172028 25.59111404 C103.20095911 25.58271256 96.74030733 25.58495104 90.27955875 25.60095628 C86.98193249 25.60885568 83.68452714 25.61029491 80.38689613 25.60200882 C76.81701126 25.59386286 73.24764675 25.60403083 69.67779541 25.61904907 C68.10472213 25.60901082 68.10472213 25.60901082 66.49986959 25.59876978 C65.54724634 25.60659303 64.59462309 25.61441627 63.61313248 25.62247658 C62.37656918 25.62320716 62.37656918 25.62320716 61.11502481 25.62395251 C58.45926638 26.09614144 57.58326004 26.84068892 56 29 C55.33333333 32.5 55.33333333 32.5 56 36 C60.50948759 40.10985164 66.01255501 39.42001548 71.74867249 39.38526917 C72.84451438 39.39050486 73.94035627 39.39574056 75.0694055 39.40113491 C78.74828603 39.41512481 82.4268172 39.40778756 86.10571289 39.40063477 C88.74033384 39.40637559 91.37492581 39.41331079 94.00953674 39.42178345 C99.6860068 39.43775819 105.36240549 39.44303445 111.03889656 39.44125557 C119.2504868 39.43887223 127.46196294 39.45486008 135.67352336 39.47570812 C149.00214853 39.50923399 162.33076348 39.53089616 175.65942383 39.54370117 C176.85583584 39.54485541 176.85583584 39.54485541 178.0764178 39.54603296 C181.30839569 39.54913538 184.5403736 39.5522182 187.77235154 39.555273 C196.67188596 39.56380536 205.57141684 39.57470574 214.47094727 39.58666992 C215.26788685 39.58773794 216.06482643 39.58880596 216.8859157 39.58990634 C230.16601507 39.60798839 243.44609008 39.63397376 256.72616571 39.66480106 C264.91901481 39.68336931 273.11180929 39.69427169 281.30467974 39.69532298 C287.57762681 39.69655517 293.85052004 39.70760631 300.12344933 39.72226334 C302.70024907 39.72655539 305.27705715 39.72739474 307.85385895 39.72458839 C311.36209542 39.721205 314.87009778 39.72993035 318.37831116 39.74171448 C319.40602334 39.73773338 320.43373551 39.73375229 321.49259049 39.72965056 C322.4310212 39.73526595 323.36945192 39.74088135 324.33631992 39.74666691 C325.14621107 39.74731901 325.95610221 39.74797112 326.79053551 39.74864298 C329.30911682 40.0351663 330.86739499 40.63721026 333 42 C335.13459991 45.20189987 335.2516979 46.01622445 335.26069641 49.69296265 C335.26778122 50.65748856 335.27486603 51.62201447 335.28216553 52.61576843 C335.27968811 53.67246231 335.27721069 54.72915619 335.2746582 55.81787109 C335.2823246 57.48897194 335.2823246 57.48897194 335.29014587 59.1938324 C335.30407832 62.88708832 335.30308222 66.58015838 335.30078125 70.2734375 C335.3046664 72.83550079 335.30900069 75.39756344 335.31376648 77.95962524 C335.32123673 83.33476112 335.32106961 88.70982465 335.31567383 94.08496094 C335.30963641 100.2942275 335.32193829 106.50326733 335.3432439 112.71249521 C335.36299514 118.68885668 335.36603222 124.66509955 335.36250877 130.64149857 C335.36302276 133.18284258 335.36827487 135.72419016 335.37832069 138.26551437 C335.39063965 141.81830106 335.38391997 145.37056175 335.37231445 148.92333984 C335.37995819 149.97598526 335.38760193 151.02863068 335.39547729 152.11317444 C335.35477654 157.74258842 335.19186268 161.80813732 331 166 C329.14193967 166.10029035 327.2800161 166.12924211 325.4192524 166.13142776 C324.19992299 166.13526891 322.98059359 166.13911005 321.72431481 166.1430676 C320.35373626 166.14228721 318.98315777 166.1414084 317.61257935 166.14044189 C316.17017343 166.1430233 314.72776823 166.14603582 313.28536403 166.1494453 C309.30286082 166.15754499 305.32037559 166.15930651 301.33786511 166.16004276 C297.05011841 166.16188818 292.76238116 166.16943288 288.47463989 166.17617798 C279.09050072 166.18978277 269.70636581 166.19578932 260.32221842 166.20018864 C254.46755666 166.20294738 248.61289657 166.20718404 242.75823593 166.21169281 C226.56226009 166.22388816 210.36628559 166.23418702 194.17030525 166.2375679 C193.13293112 166.23778747 192.09555699 166.23800703 191.02674728 166.23823325 C189.98682996 166.23845153 188.94691264 166.23866981 187.87548268 166.2388947 C185.76806267 166.23933817 183.66064266 166.23978474 181.55322266 166.24023438 C180.50785992 166.2404558 179.46249718 166.24067723 178.38545679 166.24090537 C161.43876136 166.24485517 144.4921089 166.26231352 127.54543008 166.2855939 C110.16466148 166.30927874 92.78391446 166.32176844 75.40312946 166.32293582 C65.6371285 166.32385419 55.8711835 166.32964699 46.10519791 166.34775543 C37.79063269 166.36311778 29.47614071 166.36829984 21.16156401 166.36001733 C16.91617159 166.35609707 12.67092684 166.35710699 8.42555237 166.37107468 C4.54316117 166.38373177 0.66102984 166.38268899 -3.22136058 166.37048396 C-4.62985633 166.36851264 -6.03836998 166.37167092 -7.44684051 166.38032833 C-9.3537208 166.39131212 -11.26068581 166.38219863 -13.16757011 166.3719368 C-14.22910581 166.37253389 -15.2906415 166.37313097 -16.38434494 166.37374616 C-19 166 -19 166 -20.80202687 164.66425395 C-22.97956102 161.63916956 -23.12999267 158.90579496 -23.15390015 155.30703735 C-23.16250061 154.34251144 -23.17110107 153.37798553 -23.17996216 152.38423157 C-23.18422211 151.32753769 -23.18848206 150.27084381 -23.19287109 149.18212891 C-23.20104858 148.06806168 -23.20922607 146.95399445 -23.21765137 145.8061676 C-23.24250086 142.1129714 -23.2590182 138.41981355 -23.2734375 134.7265625 C-23.27876118 133.46680981 -23.28408485 132.20705711 -23.28956985 130.9091301 C-23.31079551 125.61617642 -23.32992636 120.32323618 -23.34119225 115.03025246 C-23.35743607 107.44910153 -23.39063388 99.86846268 -23.44759309 92.28750479 C-23.49096381 86.31114827 -23.50693708 80.33502495 -23.51332474 74.35850143 C-23.52005356 71.8171257 -23.53531755 69.2757579 -23.55921555 66.73448563 C-23.5907279 63.18147793 -23.59092432 59.62977009 -23.58349609 56.07666016 C-23.59990143 55.02401474 -23.61630676 53.97136932 -23.63320923 52.88682556 C-23.59306769 48.20520943 -23.5310345 45.76136112 -20.80010986 41.84594727 C-17.72764734 39.82045396 -16.25385134 39.37875679 -12.61474609 39.38818359 C-11.56370697 39.37822357 -10.51266785 39.36826355 -9.42977905 39.35800171 C-7.74363998 39.37801743 -7.74363998 39.37801743 -6.0234375 39.3984375 C-4.86123688 39.39043121 -3.69903625 39.38242493 -2.50161743 39.37417603 C1.20761031 39.35109711 4.91574248 39.36058205 8.625 39.375 C12.34119273 39.37884103 16.05690288 39.37547479 19.77304077 39.35440063 C22.08455495 39.34226254 24.39620453 39.34505983 26.70767212 39.36410522 C27.75240692 39.36044952 28.79714172 39.35679382 29.87353516 39.35302734 C30.7933316 39.35700531 31.71312805 39.36098328 32.66079712 39.36508179 C35.47117372 38.92646344 36.31855715 38.25633194 38 36 C39.08223366 33.08995097 39.08223366 33.08995097 39 30 C37.56275436 27.67926538 37.56275436 27.67926538 35 26 C32.19303997 25.58213298 29.76148059 25.39525687 26.953125 25.390625 C26.18192322 25.37408875 25.41072144 25.35755249 24.6161499 25.34051514 C22.16068546 25.29205407 19.70584016 25.27066963 17.25 25.25 C15.58200013 25.22183854 13.91402908 25.19191086 12.24609375 25.16015625 C8.16377833 25.08297815 4.08341449 25.04244714 0 25 C0 16.75 0 8.5 0 0 Z " fill="#3B454C" transform="translate(122,286)"/>
<path d="M0 0 C1.22263046 -0.00761353 2.44526093 -0.01522705 3.7049408 -0.02307129 C6.28447429 -0.03385738 8.8640514 -0.03673149 11.44360352 -0.03222656 C15.39217596 -0.03125251 19.33881643 -0.0729324 23.28710938 -0.1171875 C25.79556887 -0.12239329 28.30403511 -0.12508271 30.8125 -0.125 C32.58295433 -0.1495929 32.58295433 -0.1495929 34.38917542 -0.17468262 C43.49170525 -0.09777917 43.49170525 -0.09777917 46.61889648 2.81445312 C48.33984375 5.46875 48.33984375 5.46875 48.40234375 8.53125 C47.19370295 11.87278634 46.07685879 13.23450325 43.33984375 15.46875 C40.87365723 15.96081543 40.87365723 15.96081543 38.08398438 15.95117188 C36.51215393 15.96138367 36.51215393 15.96138367 34.90856934 15.97180176 C33.21939392 15.95482239 33.21939392 15.95482239 31.49609375 15.9375 C30.33484985 15.94454956 29.17360596 15.95159912 27.97717285 15.9588623 C23.0066397 15.98841999 18.0364954 15.9716917 13.06591797 15.95947266 C9.43823604 15.95709821 5.81119617 15.97797792 2.18359375 16 C0.49441833 15.98302063 0.49441833 15.98302063 -1.22888184 15.96569824 C-2.2767688 15.9725061 -3.32465576 15.97931396 -4.40429688 15.98632812 C-5.78518494 15.98155457 -5.78518494 15.98155457 -7.19396973 15.97668457 C-9.7338336 16.34358711 -9.7338336 16.34358711 -11.95729065 17.81568909 C-14.70380911 22.09475889 -14.20756436 26.42229732 -14.16186523 31.40014648 C-14.16726822 32.51435974 -14.1726712 33.628573 -14.17823792 34.77655029 C-14.19075858 38.4645839 -14.17420996 42.15184192 -14.15625 45.83984375 C-14.15640492 48.40047751 -14.15789273 50.96111151 -14.16065979 53.52174377 C-14.16204533 58.89099364 -14.14989392 64.25996935 -14.12670898 69.62915039 C-14.10011299 75.8310771 -14.09834797 82.03262963 -14.11009735 88.23459381 C-14.12088916 94.20616366 -14.11457501 100.17761961 -14.10054207 106.14918709 C-14.09602333 108.6877306 -14.09569444 111.22628512 -14.09960747 113.76482964 C-14.10251592 117.31276929 -14.08602854 120.86009666 -14.06420898 124.40795898 C-14.07096146 125.98457054 -14.07096146 125.98457054 -14.07785034 127.59303284 C-14.06299339 129.04611343 -14.06299339 129.04611343 -14.0478363 130.52854919 C-14.04419146 131.78591715 -14.04419146 131.78591715 -14.04047298 133.06868649 C-13.54407315 136.2013152 -12.59760212 137.95344846 -10.66015625 140.46875 C-7.97389834 141.22005674 -7.97389834 141.22005674 -4.83331299 141.0979557 C-3.61000149 141.11099444 -2.38668999 141.12403318 -1.12630844 141.13746703 C0.2383892 141.12665576 1.60308316 141.11537243 2.96777344 141.10366821 C4.41191467 141.10942592 5.85604858 141.11736468 7.30016708 141.12730443 C11.27834607 141.14824981 15.25592825 141.13782821 19.23410988 141.12237334 C23.52049506 141.11109493 27.80677512 141.12850502 32.09313965 141.14227295 C40.49396211 141.16454759 48.89456167 141.15968543 57.29539299 141.14520974 C64.12073476 141.13393407 70.9460139 141.13237934 77.7713623 141.13782883 C79.226518 141.13897807 79.226518 141.13897807 80.71107078 141.14015054 C82.681599 141.14174911 84.6521272 141.14337017 86.62265539 141.1450135 C105.11576448 141.15928338 123.6087498 141.14285887 142.10183859 141.11601166 C157.9820169 141.09367176 173.86201249 141.09755155 189.7421875 141.12060547 C208.16750728 141.14734162 226.59271849 141.15790997 245.01805496 141.14254415 C246.98147836 141.14095134 248.94490177 141.13937949 250.9083252 141.13782883 C252.35752244 141.13667176 252.35752244 141.13667176 253.83599639 141.13549132 C260.65594948 141.13116775 267.47583391 141.13847498 274.29577637 141.15022659 C282.6030408 141.16422591 290.91006891 141.16050597 299.21730614 141.13382287 C303.45873909 141.12064988 307.69977754 141.11559107 311.94120789 141.13206863 C315.82000882 141.14690991 319.69804763 141.13887788 323.57677889 141.11218087 C324.98385882 141.10657093 326.39100245 141.10949239 327.79804182 141.12155981 C329.70298452 141.13665096 331.60810622 141.11825913 333.51300049 141.0979557 C334.57345203 141.09714394 335.63390358 141.09633218 336.72649002 141.09549582 C339.5552834 140.70633333 339.5552834 140.70633333 341.18060082 138.0796032 C342.40698127 135.31754252 342.71466575 133.52579041 342.71406555 130.52182007 C342.72107986 129.55165451 342.72809418 128.58148895 342.73532104 127.58192444 C342.72767731 126.52927902 342.72003357 125.47663361 342.7121582 124.39208984 C342.71580887 123.27451797 342.71945953 122.15694611 342.72322083 121.00550842 C342.73132353 117.31341332 342.71771971 113.62175739 342.703125 109.9296875 C342.70260644 107.36569214 342.70312399 104.80169638 342.70463562 102.23770142 C342.70454591 96.86608463 342.6944568 91.49462876 342.67602539 86.12304688 C342.65483765 79.91259916 342.65135302 73.70233634 342.65758735 67.49185979 C342.66328046 61.51441782 342.65753267 55.53705801 342.6464138 49.5596199 C342.64255758 47.01663093 342.64141533 44.47363639 342.64299965 41.93064499 C342.64336928 38.38252814 342.63077922 34.83469539 342.61450195 31.28662109 C342.61697937 30.22992722 342.61945679 29.17323334 342.62200928 28.08451843 C342.61492447 27.11999252 342.60783966 26.15546661 342.60054016 25.16171265 C342.59848729 24.32292257 342.59643442 23.4841325 342.59431934 22.61992455 C342.46951172 20.17238012 342.46951172 20.17238012 340.33984375 17.46875 C337.49502271 16.52047632 335.74736262 16.34221901 332.7992115 16.33846474 C331.86277184 16.33484039 330.92633217 16.33121604 329.96151555 16.32748187 C328.41557802 16.32908424 328.41557802 16.32908424 326.83840942 16.33071899 C325.74498195 16.32789771 324.65155447 16.32507643 323.52499282 16.32216966 C319.8423384 16.31380258 316.15971395 16.31248361 312.47705078 16.31103516 C309.84435949 16.30636855 307.211669 16.30122524 304.57897949 16.29563904 C298.9003122 16.28410934 293.22164787 16.27586718 287.54297256 16.26951981 C278.56882008 16.25919879 269.59470469 16.23863683 260.62057495 16.21640015 C257.55108083 16.20892034 254.48158654 16.20150663 251.41209221 16.19411278 C250.64497771 16.19226221 249.87786321 16.19041165 249.08750281 16.188505 C240.35374897 16.16757454 231.61999103 16.14874756 222.88623047 16.13085938 C221.68851542 16.1284021 221.68851542 16.1284021 220.4666041 16.12589519 C207.52419277 16.09960459 194.58177859 16.08096421 181.63935186 16.06426747 C168.35590335 16.04685379 155.07251092 16.01801673 141.7891072 15.9793781 C133.59331471 15.95596561 125.39761365 15.94198242 117.20178746 15.94005047 C111.58625003 15.93794292 105.97080359 15.92502909 100.355307 15.90357114 C97.11417624 15.89153019 93.87326278 15.88602644 90.63210678 15.89028358 C87.11962038 15.89416098 83.60767129 15.87977915 80.09524536 15.86074829 C78.556 15.86904283 78.556 15.86904283 76.98565876 15.87750494 C71.4473518 15.82551377 67.4625074 15.59141365 63.33984375 11.46875 C62.76763579 5.40334558 62.76763579 5.40334558 64.68575859 2.27044773 C68.90859917 -0.59618308 73.12735906 -0.08531397 78.1177063 -0.0459137 C79.22887813 -0.05285922 80.34004997 -0.05980475 81.48489368 -0.06696075 C85.2220647 -0.08531076 88.95860664 -0.07494358 92.69580078 -0.06469727 C95.36980676 -0.0717519 98.04376748 -0.08035775 100.71775818 -0.09080505 C107.23646807 -0.1124683 113.75500355 -0.11231163 120.27373762 -0.10417951 C125.57439402 -0.09788153 130.87499952 -0.0990147 136.17565536 -0.10545158 C137.30702201 -0.10680407 137.30702201 -0.10680407 138.46124455 -0.10818387 C139.99352211 -0.11003509 141.52579966 -0.11189765 143.0580772 -0.11377143 C157.43532592 -0.13035957 171.81247659 -0.12162383 186.18971942 -0.10478585 C199.33247717 -0.09010498 212.47500597 -0.10469266 225.61773421 -0.13355602 C239.11706223 -0.16298115 252.61628471 -0.17391215 266.11564338 -0.16437382 C267.64414142 -0.16335129 269.17263947 -0.16235668 270.70113754 -0.1613903 C271.82916009 -0.16067572 271.82916009 -0.16067572 272.97997097 -0.1599467 C278.26879389 -0.15778575 283.55751659 -0.16757023 288.84631729 -0.18216133 C295.30005764 -0.19971779 301.7535067 -0.19952095 308.20723577 -0.17680968 C311.49774228 -0.16569407 314.78763255 -0.16516472 318.07813454 -0.18111038 C321.65260287 -0.1970592 325.22567639 -0.18206959 328.80007935 -0.15943909 C330.34563733 -0.17719268 330.34563733 -0.17719268 331.92241871 -0.19530493 C339.54075156 -0.09758273 346.1020034 1.78468433 351.9585849 6.87596411 C358.3164391 13.95229102 358.78191298 20.97668277 358.74389648 30.02856445 C358.75419136 31.74701569 358.75419136 31.74701569 358.76469421 33.50018311 C358.78295623 37.27759285 358.77912474 41.05458694 358.7734375 44.83203125 C358.77800012 47.46608108 358.78330594 50.10012972 358.7893219 52.73417664 C358.79933853 58.25275626 358.79606612 63.77121861 358.78588867 69.28979492 C358.77442119 75.64794214 358.78846481 82.00566685 358.81528515 88.36375839 C358.84020476 94.50351821 358.84260425 100.64308467 358.83616829 106.78288841 C358.83601529 109.38429656 358.84204155 111.98571293 358.85445976 114.58709145 C358.86940601 118.23196043 358.85866384 121.87591088 358.84155273 125.52075195 C358.8512207 126.58653976 358.86088867 127.65232758 358.87084961 128.75041199 C358.79410296 136.59287461 357.37334116 143.63696379 352.41015625 149.90625 C351.76820313 150.421875 351.12625 150.9375 350.46484375 151.46875 C349.82804687 152.005 349.19125 152.54125 348.53515625 153.09375 C343.93198723 155.97687366 339.47244432 156.71893117 334.11097145 156.72601891 C332.87432011 156.7324678 331.63766877 156.73891669 330.36354315 156.745561 C328.99932987 156.74261902 327.63511699 156.73948361 326.27090454 156.73617554 C324.81537083 156.73991331 323.35983912 156.74451534 321.90431058 156.74990618 C317.90853297 156.76213575 313.91283908 156.76187578 309.91704702 156.75951743 C305.60610763 156.75910926 301.29519507 156.77014839 296.98426819 156.77963257 C288.54013504 156.79624285 280.09602982 156.80174211 271.65188171 156.80285732 C264.78853045 156.8038077 257.9251884 156.80791746 251.06184006 156.81425858 C231.60366205 156.83187036 212.1455061 156.84109744 192.68732007 156.83959763 C191.63840484 156.83951772 190.5894896 156.8394378 189.50878906 156.83935547 C187.93349578 156.83923283 187.93349578 156.83923283 186.32637839 156.83910771 C169.30252893 156.83829462 152.27876791 156.85743808 135.25494404 156.8856322 C117.77567734 156.91435227 100.29645378 156.92817301 82.81716287 156.92644465 C73.00355505 156.92578049 63.19003997 156.93128434 53.3764534 156.95280075 C45.02187418 156.97100091 36.66742974 156.9753694 28.31283928 156.9617819 C24.05055128 156.95524661 19.78852195 156.95515524 15.52625847 156.9724884 C11.62276197 156.98819933 7.71972968 156.98537606 3.81624465 156.96792014 C2.40579095 156.96484587 0.99530277 156.96849879 -0.41511028 156.97964029 C-9.26582332 157.04491366 -15.61913464 156.62833561 -22.6484375 150.828125 C-23.30392578 150.03148437 -23.30392578 150.03148437 -23.97265625 149.21875 C-24.42253906 148.69796875 -24.87242188 148.1771875 -25.3359375 147.640625 C-29.69935356 140.4841078 -30.10253137 133.98008152 -30.08007812 125.79541016 C-30.08854767 124.64962997 -30.09701721 123.50384979 -30.10574341 122.323349 C-30.12906285 118.55138929 -30.13013671 114.77983872 -30.12890625 111.0078125 C-30.13601082 108.37519163 -30.14371026 105.74257231 -30.15197754 103.10995483 C-30.16655323 97.59735817 -30.16717833 92.08487467 -30.16113281 86.57226562 C-30.15449557 80.22140837 -30.1773537 73.87113243 -30.21444654 67.52039301 C-30.24896448 61.3854256 -30.2554708 55.25073078 -30.25135803 49.11567307 C-30.25304713 46.51704553 -30.26266921 43.91841018 -30.28050232 41.31984329 C-30.30273515 37.67972469 -30.29296594 34.04099437 -30.27539062 30.40087891 C-30.28865387 29.33666214 -30.30191711 28.27244537 -30.31558228 27.17597961 C-30.22927442 19.44925552 -28.47658026 12.7469108 -23.21749115 6.85154152 C-15.93785542 0.4219075 -9.30500147 0.00159061 0 0 Z " fill="#000101" transform="translate(113.66015625,310.53125)"/>
<path d="M0 0 C8.1417536 5.91020984 14.2274917 13.54728627 16.6015625 23.45703125 C17.86925692 35.44838562 16.07665163 44.08542948 8.9140625 53.70703125 C1.74076085 62.13764591 -6.50703417 66.42732829 -17.5234375 67.703125 C-28.20111398 68.06909375 -37.58685174 64.83524828 -45.44140625 57.56640625 C-49.38158189 53.29858274 -52.14994308 48.79587346 -54.3984375 43.45703125 C-54.93597656 42.25820312 -54.93597656 42.25820312 -55.484375 41.03515625 C-58.33406038 32.9975821 -56.40391464 23.19841176 -53.3984375 15.45703125 C-48.98898105 7.45233453 -43.31302766 1.9449491 -35.3984375 -2.54296875 C-34.77582031 -2.90261719 -34.15320313 -3.26226562 -33.51171875 -3.6328125 C-22.74204664 -8.7022677 -9.62042654 -6.18903662 0 0 Z " fill="#EAE8E9" transform="translate(71.3984375,184.54296875)"/>
<path d="M0 0 C5.94 0 11.88 0 18 0 C18 41.58 18 83.16 18 126 C11.73 126 5.46 126 -1 126 C-4.65869921 122.34130079 -5.12102999 120.25493397 -5.15390015 115.30703735 C-5.16250061 114.34251144 -5.17110107 113.37798553 -5.17996216 112.38423157 C-5.18422211 111.32753769 -5.18848206 110.27084381 -5.19287109 109.18212891 C-5.20104858 108.06806168 -5.20922607 106.95399445 -5.21765137 105.8061676 C-5.24250086 102.1129714 -5.2590182 98.41981355 -5.2734375 94.7265625 C-5.27876118 93.46680981 -5.28408485 92.20705711 -5.28956985 90.9091301 C-5.31079551 85.61617642 -5.32992636 80.32323618 -5.34119225 75.03025246 C-5.35743607 67.44910153 -5.39063388 59.86846268 -5.44759309 52.28750479 C-5.49096381 46.31114827 -5.50693708 40.33502495 -5.51332474 34.35850143 C-5.52005356 31.8171257 -5.53531755 29.2757579 -5.55921555 26.73448563 C-5.5907279 23.18147793 -5.59092432 19.62977009 -5.58349609 16.07666016 C-5.59990143 15.02401474 -5.61630676 13.97136932 -5.63320923 12.88682556 C-5.62489075 11.91666 -5.61657227 10.94649445 -5.60800171 9.94692993 C-5.61131186 9.10738581 -5.614622 8.26784168 -5.61803246 7.40285683 C-5 5 -5 5 0 0 Z " fill="#31393F" transform="translate(104,326)"/>
<path d="M0 0 C0 3.47160663 -0.84969097 5.19316907 -2.31640625 8.328125 C-3.07824219 9.97095459 -3.07824219 9.97095459 -3.85546875 11.64697266 C-5.01483031 14.09403471 -6.18116755 16.53622934 -7.359375 18.97412109 C-7.98124507 20.26622822 -8.60232459 21.55871609 -9.22265625 22.8515625 C-9.69761032 23.83997635 -9.69761032 23.83997635 -10.18215942 24.84835815 C-12.1164039 28.93813752 -13.82780173 33.05825979 -15.40179443 37.29911804 C-24.06010496 60.54876714 -24.06010496 60.54876714 -33.31674194 65.25012207 C-39.99349876 68.18637394 -46.97095476 69.97234121 -54.12182617 71.34692383 C-56.96655675 71.86466201 -56.96655675 71.86466201 -59.20043945 73.14331055 C-61 74 -61 74 -64 73 C-63.61368408 72.20754883 -63.22736816 71.41509766 -62.8293457 70.59863281 C-61.32804262 67.51578573 -59.82887856 64.4319171 -58.33123779 61.34729004 C-57.65303687 59.95106812 -56.97420551 58.55515225 -56.29473877 57.1595459 C-52.52815314 49.41947105 -48.81366691 41.66438872 -45.28515625 33.8125 C-44.99419571 33.16899597 -44.70323517 32.52549194 -44.40345764 31.86248779 C-43.01831205 28.79867818 -41.64814539 25.73073074 -40.30200195 22.64941406 C-39.80788818 21.55338867 -39.31377441 20.45736328 -38.8046875 19.328125 C-38.38171387 18.3680957 -37.95874023 17.40806641 -37.52294922 16.41894531 C-34.41023305 11.47492611 -29.02749103 10.12899182 -23.73046875 8.30078125 C-23.04946609 8.0608696 -22.36846344 7.82095795 -21.66682434 7.57377625 C-19.50882149 6.81484984 -17.34824735 6.06357222 -15.1875 5.3125 C-13.71661988 4.79672843 -12.24591477 4.28045748 -10.77539062 3.76367188 C-7.18559262 2.50332829 -3.59346998 1.24983366 0 0 Z " fill="#434E56" transform="translate(287,72)"/>
<path d="M0 0 C-0.82961427 1.75238726 -1.6592519 3.50476347 -2.48898315 5.25709534 C-3.2311919 6.82488097 -3.97314852 8.39278597 -4.71487427 9.96080017 C-6.76367559 14.29064561 -8.81752191 18.61797876 -10.88085938 22.94091797 C-16.12370618 33.93226554 -16.12370618 33.93226554 -21.0703125 45.05859375 C-21.49393066 46.02514893 -21.91754883 46.9917041 -22.35400391 47.98754883 C-23.09041338 49.68235743 -23.80084343 51.38882389 -24.47802734 53.1081543 C-26.39546654 57.45003423 -28.05918534 59.41035121 -32.5 61.2265625 C-34.32820642 61.83337862 -36.16200728 62.42350434 -38 63 C-40.05622524 63.77556462 -42.10820762 64.56245271 -44.15625 65.359375 C-46.27039493 66.15741238 -48.38498301 66.9542767 -50.5 67.75 C-51.5828125 68.16121094 -52.665625 68.57242188 -53.78125 68.99609375 C-54.8125 69.38410156 -55.84375 69.77210937 -56.90625 70.171875 C-58.30327148 70.6992627 -58.30327148 70.6992627 -59.72851562 71.23730469 C-62 72 -62 72 -64 72 C-62.42731991 66.82879715 -60.25760167 62.08705686 -57.9296875 57.2265625 C-57.52976593 56.38515717 -57.12984436 55.54375183 -56.71780396 54.67684937 C-55.87047553 52.89592693 -55.02147027 51.11580145 -54.17089844 49.33642578 C-52.47903847 45.79652435 -50.7963196 42.25230247 -49.11352539 38.70808411 C-48.28279987 36.97075105 -47.44440757 35.23706316 -46.59838867 33.50712585 C-44.64254052 29.50525838 -42.77688824 25.52293691 -41.15234375 21.37426758 C-38.47806351 14.8148 -36.22561286 9.92850399 -29.59750366 6.79663086 C-26.20535319 5.45188934 -22.757877 4.43092754 -19.25 3.4375 C-17.82510032 2.97730513 -16.40189415 2.51183219 -14.98046875 2.04101562 C-4.44416724 -1.33235438 -4.44416724 -1.33235438 0 0 Z " fill="#434E56" transform="translate(397,35)"/>
<path d="M0 0 C-1.38609317 1.61488565 -2.77221502 3.22974668 -4.15844727 4.84451294 C-5.39989674 6.29759556 -6.63596206 7.7552933 -7.86694336 9.21725464 C-41.39093203 48.95834969 -41.39093203 48.95834969 -58.16015625 50.6953125 C-67.19888039 51.21586756 -76.20100464 50.01749313 -85 48 C-85 47.34 -85 46.68 -85 46 C-83.53042603 44.59739685 -83.53042603 44.59739685 -81.49853516 42.95092773 C-77.63459309 39.66463224 -74.38639316 36.13080056 -71.11811829 32.26135254 C-49.6889092 6.92912609 -33.93651106 -7.31975287 0 0 Z " fill="#444F56" transform="translate(322,223)"/>
<path d="M0 0 C-4.73523644 5.70100985 -9.81701444 10.93286287 -15.08203125 16.14453125 C-15.93681564 16.99552902 -16.79160004 17.84652679 -17.67228699 18.72331238 C-20.38327475 21.42215137 -23.09748352 24.11771429 -25.8125 26.8125 C-29.40518226 30.37867032 -32.99459906 33.94808051 -36.58203125 37.51953125 C-37.41112503 38.34032669 -38.24021881 39.16112213 -39.09443665 40.00679016 C-39.85580429 40.76485458 -40.61717194 41.52291901 -41.40161133 42.30395508 C-42.0741243 42.97123123 -42.74663727 43.63850739 -43.43952942 44.32600403 C-45.08354103 45.93145193 -45.08354103 45.93145193 -46 48 C-58.87 48 -71.74 48 -85 48 C-83.02 45.69 -81.04 43.38 -79 41 C-77.71901553 39.48087513 -76.43837376 37.96146115 -75.15820312 36.44165039 C-52.73428037 10.13495881 -35.98110868 -8.2499918 0 0 Z " fill="#444E56" transform="translate(205,223)"/>
<path d="M0 0 C-1.38609317 1.61488565 -2.77221502 3.22974668 -4.15844727 4.84451294 C-5.39989674 6.29759556 -6.63596206 7.7552933 -7.86694336 9.21725464 C-41.39093203 48.95834969 -41.39093203 48.95834969 -58.16015625 50.6953125 C-67.19888039 51.21586756 -76.20100464 50.01749313 -85 48 C-83.61390683 46.38511435 -82.22778498 44.77025332 -80.84155273 43.15548706 C-79.60010326 41.70240444 -78.36403794 40.2447067 -77.13305664 38.78274536 C-54.34228494 11.76536884 -37.08447892 -8.50297998 0 0 Z " fill="#444F57" transform="translate(438,223)"/>
<path d="M0 0 C-1.4123524 3.61414196 -2.95186877 7.14305119 -4.58203125 10.6640625 C-5.09515869 11.77386475 -5.60828613 12.88366699 -6.13696289 14.02709961 C-7.27354171 16.46768858 -8.41362212 18.9062229 -9.56030273 21.34204102 C-10.16011294 22.61729408 -10.75980223 23.89260403 -11.359375 25.16796875 C-11.66182632 25.81071243 -11.96427765 26.45345612 -12.27589417 27.11567688 C-14.08473237 30.97994877 -15.82644119 34.86607171 -17.5115509 38.78582764 C-18.31860302 40.65374271 -19.14275082 42.51307226 -19.97338867 44.37060547 C-21.00802372 46.69293118 -22.01254908 49.02898322 -22.98168945 51.37939453 C-25.62526374 57.19357783 -27.68905164 60.43909253 -33.67578125 62.984375 C-35.77371603 63.68726696 -37.88224765 64.35928756 -40 65 C-41.97529275 65.73560295 -43.94679152 66.48148667 -45.9140625 67.23828125 C-47.81664536 67.93260719 -49.72028869 68.62403439 -51.625 69.3125 C-52.60339844 69.67150391 -53.58179687 70.03050781 -54.58984375 70.40039062 C-55.52183594 70.73876953 -56.45382813 71.07714844 -57.4140625 71.42578125 C-58.2488916 71.72911377 -59.0837207 72.03244629 -59.94384766 72.3449707 C-62 73 -62 73 -64 73 C-62.73516196 68.99449544 -61.26513075 65.2629958 -59.41796875 61.4921875 C-58.9065332 60.43652588 -58.39509766 59.38086426 -57.86816406 58.29321289 C-56.72050885 55.95905824 -55.56179483 53.63031675 -54.39355469 51.30639648 C-51.29582297 45.09650985 -48.57631886 39.01891599 -46.41015625 32.41796875 C-39.77334323 13.39385487 -39.77334323 13.39385487 -30.14428711 8.55638123 C-21.14947122 4.5388857 -9.95908446 0 0 0 Z " fill="#434E56" transform="translate(178,112)"/>
<path d="M0 0 C1.3137561 0.32206421 1.3137561 0.32206421 2.65405273 0.65063477 C1.27000101 2.26599713 -0.11436575 3.88109021 -1.49993896 5.49514771 C-2.74567652 6.9497301 -3.98782778 8.4073905 -5.22662354 9.8678894 C-39.05354048 49.60578839 -39.05354048 49.60578839 -55.06079102 51.34594727 C-63.58736034 51.86264239 -72.07400781 50.67848121 -80.34594727 48.65063477 C-78.96189554 47.03527241 -77.57752878 45.42017932 -76.19195557 43.80612183 C-74.94621802 42.35153943 -73.70406675 40.89387903 -72.465271 39.43338013 C-33.01714713 -6.90798654 -33.01714713 -6.90798654 0 0 Z " fill="#EAE8E9" transform="translate(376.345947265625,222.349365234375)"/>
<path d="M0 0 C0 3.49270685 -0.87415516 5.24346469 -2.3515625 8.3984375 C-2.86654297 9.50453369 -3.38152344 10.61062988 -3.91210938 11.75024414 C-4.48254303 12.95874635 -5.05352033 14.16699208 -5.625 15.375 C-6.2091251 16.61638887 -6.79310732 17.85784498 -7.37695312 19.09936523 C-8.60853365 21.71468995 -9.84475236 24.32777133 -11.08300781 26.93994141 C-12.69229597 30.33964217 -14.2788229 33.74945061 -15.85922241 37.16265869 C-17.09553638 39.82571594 -18.34464584 42.4826338 -19.59686279 45.13824463 C-20.19620053 46.41521434 -20.79069623 47.69446848 -21.38018799 48.97601318 C-22.2083483 50.77301356 -23.05690523 52.56057111 -23.90625 54.34765625 C-24.38384766 55.36867432 -24.86144531 56.38969238 -25.35351562 57.44165039 C-28.41956526 62.20575687 -33.17739983 63.58035599 -38.32421875 65.48046875 C-39.51724609 65.92197266 -40.71027344 66.36347656 -41.93945312 66.81835938 C-43.17630859 67.27017578 -44.41316406 67.72199219 -45.6875 68.1875 C-46.94871215 68.65520963 -48.20978134 69.12330499 -49.47070312 69.59179688 C-58.73157907 73 -58.73157907 73 -61 73 C-59.42517167 67.81108287 -57.23791644 63.0633387 -54.89453125 58.19140625 C-54.29109138 56.92574074 -54.29109138 56.92574074 -53.67546082 55.63450623 C-52.39108487 52.94225754 -51.10197576 50.25230925 -49.8125 47.5625 C-48.5461493 44.91331081 -47.28078587 42.26366854 -46.01809692 39.61273193 C-45.18679141 37.87575387 -44.34864076 36.14203503 -43.50363159 34.41168213 C-41.61279634 30.51932131 -39.82738569 26.66849275 -38.36181641 22.59472656 C-36.0736056 16.43914182 -34.05293416 11.87947132 -27.82099915 8.94392395 C-24.51813543 7.63084056 -21.16179951 6.61199061 -17.75 5.625 C-16.36027748 5.17712119 -14.97222648 4.72402107 -13.5859375 4.265625 C-10.07441039 3.11714671 -6.54201409 2.05101007 -3 1 C-2.01 0.67 -1.02 0.34 0 0 Z " fill="#EBE9EA" transform="translate(231,92)"/>
<path d="M0 0 C-0.71091398 1.51510488 -1.4218757 3.03018736 -2.13302612 4.54518127 C-2.77407715 5.91085863 -3.4149612 7.27661438 -4.05569458 8.6424408 C-5.8485086 12.46182237 -7.64703115 16.27836721 -9.45556641 20.09033203 C-14.12737422 29.93573718 -14.12737422 29.93573718 -18.59289551 39.87568665 C-19.36114637 41.63400582 -20.14471733 43.38560635 -20.92871094 45.13696289 C-21.86807694 47.24007082 -22.78182589 49.35487758 -23.66503906 51.48217773 C-25.88877916 56.37918188 -27.54264709 59.31434763 -32.6328125 61.39453125 C-34.41539196 61.95090102 -36.20496774 62.48522234 -38 63 C-39.91143702 63.71147751 -41.81766234 64.43709496 -43.71875 65.17578125 C-45.64520514 65.88971822 -47.57229294 66.60195029 -49.5 67.3125 C-50.48742187 67.68439453 -51.47484375 68.05628906 -52.4921875 68.43945312 C-53.90371094 68.95862305 -53.90371094 68.95862305 -55.34375 69.48828125 C-56.19130859 69.80321533 -57.03886719 70.11814941 -57.91210938 70.44262695 C-60 71 -60 71 -62 70 C-61.64397705 69.26813477 -61.2879541 68.53626953 -60.92114258 67.78222656 C-59.21574482 64.27270179 -57.51334397 60.7617332 -55.8125 57.25 C-55.50097992 56.60717072 -55.18945984 55.96434143 -54.86849976 55.30203247 C-51.27926984 47.88893065 -47.72760303 40.46121007 -44.28125 32.98046875 C-43.83950691 32.02235794 -43.83950691 32.02235794 -43.38883972 31.04489136 C-41.97737324 27.97955037 -40.57329506 24.91117058 -39.17700195 21.83886719 C-38.67128662 20.73575195 -38.16557129 19.63263672 -37.64453125 18.49609375 C-37.20471924 17.52857178 -36.76490723 16.5610498 -36.31176758 15.56420898 C-33.56391336 10.19277537 -31.48348745 8.44477354 -25.72265625 6.38671875 C-23.86930664 5.7225293 -23.86930664 5.7225293 -21.97851562 5.04492188 C-21.01425659 4.7112561 -21.01425659 4.7112561 -20.03051758 4.37084961 C-18.06627503 3.68881079 -16.11235815 2.98184049 -14.15820312 2.27148438 C-3.6723558 -1.42779579 -3.6723558 -1.42779579 0 0 Z " fill="#EBE9EA" transform="translate(341,55)"/>
<path d="M0 0 C3.78968611 1.04198847 6.9614779 2.71930432 10.3762207 4.65335083 C10.3762207 12.96663496 -2.37910418 22.55062046 -7.8737793 28.34085083 C-8.55800524 29.06504778 -8.55800524 29.06504778 -9.25605392 29.80387497 C-29.04881316 50.63131289 -29.04881316 50.63131289 -43.90103149 51.51542664 C-51.58736434 51.55923916 -59.16919474 50.48082464 -66.6237793 48.65335083 C-59.32767922 40.03101743 -51.67256107 31.76622314 -43.86254883 23.60818481 C-42.04387534 21.68753721 -40.24628257 19.74669583 -38.47094727 17.78591919 C-26.9052604 5.04349717 -17.96227113 -3.22953013 0 0 Z " fill="#EAE8E9" transform="translate(478.623779296875,222.34664916992188)"/>
<path d="M0 0 C0.84554443 0.21470947 1.69108887 0.42941895 2.56225586 0.65063477 C-2.17298058 6.35164461 -7.25475858 11.58349763 -12.51977539 16.79516602 C-13.37455978 17.64616379 -14.22934418 18.49716156 -15.11003113 19.37394714 C-17.82101889 22.07278614 -20.53522766 24.76834905 -23.25024414 27.46313477 C-26.8429264 31.02930509 -30.4323432 34.59871528 -34.01977539 38.17016602 C-34.84886917 38.99096146 -35.67796295 39.8117569 -36.53218079 40.65742493 C-37.29354843 41.41548935 -38.05491608 42.17355377 -38.83935547 42.95458984 C-39.51186844 43.621866 -40.18438141 44.28914215 -40.87727356 44.97663879 C-42.52128517 46.5820867 -42.52128517 46.5820867 -43.43774414 48.65063477 C-55.31774414 48.65063477 -67.19774414 48.65063477 -79.43774414 48.65063477 C-77.45774414 46.34063477 -75.47774414 44.03063477 -73.43774414 41.65063477 C-72.76371048 40.85919571 -72.08967682 40.06775665 -71.3952179 39.25233459 C-31.92436988 -6.91150552 -31.92436988 -6.91150552 0 0 Z " fill="#EDEBEC" transform="translate(259.437744140625,222.349365234375)"/>
<path d="M0 0 C1.25425781 0.01804687 2.50851562 0.03609375 3.80078125 0.0546875 C5.22970703 0.08949219 5.22970703 0.08949219 6.6875 0.125 C8.01691162 3.11209031 7.64984113 4.22352985 6.45922852 7.33862305 C5.8403821 8.61061052 5.20851573 9.87631468 4.56640625 11.13671875 C4.23122986 11.81840622 3.89605347 12.50009369 3.55072021 13.20243835 C2.46165126 15.41152892 1.35633366 17.61201218 0.25 19.8125 C-0.86926174 22.06539916 -1.98520145 24.31992265 -3.10090637 26.57458496 C-3.83349591 28.05422617 -4.5675271 29.53315451 -5.30302429 31.01135254 C-7.26894396 34.97104772 -9.17660254 38.94521004 -10.984375 42.98046875 C-11.51526733 44.16346558 -11.51526733 44.16346558 -12.05688477 45.37036133 C-12.66287897 46.73875052 -13.25808221 48.11199781 -13.83959961 49.4909668 C-16.11823643 54.58631975 -19.06318537 56.20016187 -24.11157227 58.27587891 C-25.10729248 58.63085449 -26.1030127 58.98583008 -27.12890625 59.3515625 C-28.76956055 59.939375 -28.76956055 59.939375 -30.44335938 60.5390625 C-31.57580078 60.93867187 -32.70824219 61.33828125 -33.875 61.75 C-35.01130859 62.15734375 -36.14761719 62.5646875 -37.31835938 62.984375 C-46.45215683 66.23913232 -46.45215683 66.23913232 -50.3125 67.125 C-48.78096016 62.12016419 -46.71793071 57.52898926 -44.4609375 52.82421875 C-43.89434921 51.63225639 -43.89434921 51.63225639 -43.3163147 50.41621399 C-42.1099556 47.88008187 -40.89887782 45.34623817 -39.6875 42.8125 C-38.50329964 40.32733003 -37.32007595 37.84169907 -36.13755798 35.35572815 C-35.35434801 33.71224767 -34.56867876 32.06993687 -33.78053284 30.42881775 C-31.83869191 26.37807165 -29.94019834 22.31639974 -28.12475586 18.20727539 C-27.77478546 17.42741776 -27.42481506 16.64756012 -27.0642395 15.84407043 C-26.40820358 14.37726941 -25.76456848 12.9048323 -25.13595581 11.42607117 C-23.19073849 7.11318499 -21.52146388 5.00789079 -17.125 3.1875 C-15.52900297 2.79816955 -13.92419972 2.44313322 -12.3125 2.125 C-11.15234375 1.60099609 -11.15234375 1.60099609 -9.96875 1.06640625 C-6.54298467 -0.14772529 -3.62390005 -0.06773645 0 0 Z " fill="#EBE9EA" transform="translate(439.3125,19.875)"/>
<path d="M0 0 C1.68866944 0.05024837 3.37748353 0.09586035 5.06640625 0.13671875 C9.17289043 0.24605554 13.27232419 0.41805143 17.375 0.625 C15.99094827 2.24036236 14.60658151 3.85545544 13.2210083 5.46951294 C11.97527075 6.92409533 10.73311949 8.38175573 9.49432373 9.84225464 C-24.33259321 49.58015362 -24.33259321 49.58015362 -40.33984375 51.3203125 C-48.86641308 51.83700762 -57.35306054 50.65284644 -65.625 48.625 C-61.84006538 43.7041544 -58.44030986 40.59232821 -52.8125 37.75 C-42.33218008 32.08980094 -36.29925389 24.98785361 -31.03515625 14.34765625 C-22.68725831 0.61002087 -14.99520069 -0.7793152 0 0 Z " fill="#D0CECF" transform="translate(128.625,222.375)"/>
<path d="M0 0 C4.8419472 2.03380441 7.88555703 5.32576286 10.5859375 9.77734375 C12.99484091 15.73342361 12.5311973 21.87001276 10.46484375 27.8515625 C6.63747835 33.26266531 3.05114494 36.42099328 -3.34765625 38.4140625 C-9.31664119 39.10570679 -14.320208 38.98913681 -19.34765625 35.4140625 C-24.62248642 30.25961227 -27.438448 26.5710828 -27.59765625 19.1015625 C-27.51112013 13.24595167 -25.81932079 9.11809512 -21.97265625 4.6640625 C-15.17337173 -1.16389566 -8.72505712 -2.17763489 0 0 Z " fill="#020202" transform="translate(59.34765625,196.5859375)"/>
<path d="M0 0 C-1.47690993 4.82463482 -3.4418314 9.20740831 -5.66796875 13.71484375 C-6.0258699 14.44764053 -6.38377106 15.18043732 -6.7525177 15.93544006 C-7.89399527 18.2712008 -9.04045309 20.60446994 -10.1875 22.9375 C-11.68289256 25.987352 -13.1760708 29.03828089 -14.66796875 32.08984375 C-15.21346878 33.20472672 -15.21346878 33.20472672 -15.76998901 34.34213257 C-19.27199107 41.51886098 -22.65345535 48.74971069 -26 56 C-30.7890625 51.296875 -30.7890625 51.296875 -32.6875 48.625 C-36.20474257 44.63245438 -40.58354832 41.92463499 -45 39 C-44.43253013 32.94023246 -42.00582336 27.83950637 -39.5 22.375 C-39.10296875 21.43398437 -38.7059375 20.49296875 -38.296875 19.5234375 C-36.19357756 14.95330972 -34.55702617 11.75475444 -29.8671875 9.6171875 C-28.25436919 9.05011279 -26.63094159 8.51262671 -25 8 C-23.13605115 7.29161958 -21.27414214 6.57785386 -19.4140625 5.859375 C-17.48560468 5.15288435 -15.55589972 4.44978916 -13.625 3.75 C-12.64144531 3.38648438 -11.65789062 3.02296875 -10.64453125 2.6484375 C-9.70222656 2.30554688 -8.75992188 1.96265625 -7.7890625 1.609375 C-6.94037598 1.29967773 -6.09168945 0.98998047 -5.21728516 0.67089844 C-3 0 -3 0 0 0 Z " fill="#D0CECF" transform="translate(122,132)"/>
<path d="M0 0 C2.875 1.9375 2.875 1.9375 5 4 C8.06429776 5.53214888 10.6165642 5.22938548 14 5 C16.74832154 3.71815438 16.74832154 3.71815438 19 2 C22.7205836 -0.48038907 24.59796571 -0.46337203 29 0 C31.4375 1.625 31.4375 1.625 33 4 C33.359375 6.8828125 33.359375 6.8828125 33 10 C31.20703125 12.265625 31.20703125 12.265625 28.8125 14.25 C28.03519531 14.91515625 27.25789063 15.5803125 26.45703125 16.265625 C19.73891951 21.00782153 11.31040284 21.80975716 3.3125 20.4375 C-2.73907853 18.84841643 -7.55984737 15.16022894 -11 10 C-11.53282588 4.03235014 -11.53282588 4.03235014 -10 1.0625 C-6.75980198 -0.6588552 -3.52710029 -0.64755357 0 0 Z " fill="#000101" transform="translate(267,380)"/>
<path d="M0 0 C-1.36135063 4.35976848 -3.04431485 8.38535411 -5.0390625 12.4921875 C-5.32478119 13.08299103 -5.61049988 13.67379456 -5.90487671 14.28250122 C-6.808176 16.14834319 -7.71649161 18.0116898 -8.625 19.875 C-9.24252227 21.1482752 -9.85971299 22.42171124 -10.4765625 23.6953125 C-11.98054817 26.79874308 -13.48903927 29.89995825 -15 33 C-18.05135761 31.53719909 -20.26909726 29.99925028 -22.75 27.6875 C-26.56295868 24.26157096 -30.5682613 21.55767898 -35 19 C-35.0625 15.75 -35.0625 15.75 -34 12 C-32.32739258 10.90820312 -32.32739258 10.90820312 -30.14453125 10.03125 C-29.33137451 9.69963867 -28.51821777 9.36802734 -27.68041992 9.02636719 C-26.79588135 8.68766602 -25.91134277 8.34896484 -25 8 C-23.63742065 7.4726123 -23.63742065 7.4726123 -22.24731445 6.93457031 C-19.38205562 5.84722866 -16.50623664 4.79420657 -13.625 3.75 C-12.64144531 3.38648438 -11.65789062 3.02296875 -10.64453125 2.6484375 C-9.70222656 2.30554688 -8.75992188 1.96265625 -7.7890625 1.609375 C-6.94037598 1.29967773 -6.09168945 0.98998047 -5.21728516 0.67089844 C-3 0 -3 0 0 0 Z " fill="#E9E7E8" transform="translate(122,132)"/>
<path d="M0 0 C0 9.24 0 18.48 0 28 C-9.24 28 -18.48 28 -28 28 C-24.32750234 23.7154194 -20.81271048 19.68519905 -16.85546875 15.72265625 C-15.47004883 14.33530273 -15.47004883 14.33530273 -14.05664062 12.91992188 C-13.58589111 12.45126709 -13.1151416 11.9826123 -12.63012695 11.49975586 C-11.16953741 10.04460429 -9.71446797 8.58408143 -8.25976562 7.12304688 C-7.34259766 6.20716797 -6.42542969 5.29128906 -5.48046875 4.34765625 C-4.64410889 3.51242432 -3.80774902 2.67719238 -2.94604492 1.81665039 C-1 0 -1 0 0 0 Z " fill="#424C54" transform="translate(497,243)"/>
<path d="M0 0 C0.66 0 1.32 0 2 0 C3.34386556 3.5794717 4.67323814 7.16415713 6 10.75 C6.3815625 11.76578125 6.763125 12.7815625 7.15625 13.828125 C7.5171875 14.8078125 7.878125 15.7875 8.25 16.796875 C8.58515625 17.69760742 8.9203125 18.59833984 9.265625 19.52636719 C10 22 10 22 10 26 C6.39870379 27.34117853 2.79352141 28.6715839 -0.8125 30 C-1.83666016 30.3815625 -2.86082031 30.763125 -3.91601562 31.15625 C-4.89892578 31.5171875 -5.88183594 31.878125 -6.89453125 32.25 C-7.80050049 32.58515625 -8.70646973 32.9203125 -9.63989258 33.265625 C-12 34 -12 34 -15 34 C-13.61625046 29.59185274 -11.91836812 25.47259068 -9.9609375 21.2890625 C-9.67521881 20.67606293 -9.38950012 20.06306335 -9.09512329 19.43148804 C-8.19146932 17.49454784 -7.28331831 15.55975656 -6.375 13.625 C-5.75751275 12.30352544 -5.14032233 10.98191214 -4.5234375 9.66015625 C-3.01905252 6.43849336 -1.51062991 3.21874023 0 0 Z " fill="#424D55" transform="translate(458,33)"/>
<path d="M0 0 C2.40743477 1.65376556 3.77386393 2.94191684 4.39697266 5.85742188 C4.57577189 8.08545612 4.59474965 10.26528869 4.5625 12.5 C4.58634766 13.25925781 4.61019531 14.01851563 4.63476562 14.80078125 C4.6240731 18.87106731 4.53333325 20.43200009 1.65625 23.49609375 C-1.60941293 25.34503526 -3.30867198 25.70685005 -7 25 C-10.08952045 22.08430012 -10.94475491 20.40012072 -11.53125 16.15234375 C-11.54178381 14.74739671 -11.53089965 13.34214671 -11.5 11.9375 C-11.51546875 11.23044922 -11.5309375 10.52339844 -11.546875 9.79492188 C-11.52093439 6.34157759 -11.25297995 4.34403092 -9.1875 1.53515625 C-5.98189529 -0.71449134 -3.81884158 -0.5455488 0 0 Z " fill="#010101" transform="translate(341,370)"/>
<path d="M0 0 C2.62070778 0.42828687 3.35446399 1.28138264 5.0078125 3.328125 C5.62550605 6.27775169 5.47146182 9.25845341 5.4453125 12.265625 C5.46529297 13.07708984 5.48527344 13.88855469 5.50585938 14.72460938 C5.50268439 18.59491832 5.48787821 20.66663319 3.16796875 23.86328125 C0.21081478 25.86858458 -1.49048939 25.91174135 -4.9921875 25.328125 C-7.29494306 23.4610259 -8.67042621 21.97164759 -9.9921875 19.328125 C-10.14120241 17.22758784 -10.21357203 15.12124675 -10.2421875 13.015625 C-10.26796875 11.88511719 -10.29375 10.75460937 -10.3203125 9.58984375 C-9.58004249 2.23120732 -6.88814206 0.25417498 0 0 Z " fill="#010101" transform="translate(219.9921875,369.671875)"/>
<path d="M0 0 C6.93 0 13.86 0 21 0 C16.06373204 5.75897929 11.0368923 11.14933031 5.68505859 16.50024414 C4.23374698 17.9537779 2.79066512 19.41518173 1.34765625 20.87695312 C0.43371094 21.79283203 -0.48023437 22.70871094 -1.421875 23.65234375 C-2.25299805 24.48757568 -3.08412109 25.32280762 -3.94042969 26.18334961 C-6 28 -6 28 -8 28 C-7.5875 26.783125 -7.175 25.56625 -6.75 24.3125 C-5.42437226 20.32299175 -4.13523079 16.32316151 -2.875 12.3125 C-2.37613281 10.72888672 -2.37613281 10.72888672 -1.8671875 9.11328125 C-0.81651999 5.55468964 -0.81651999 5.55468964 0 0 Z " fill="#ECEAEB" transform="translate(125,223)"/>
<path d="M0 0 C-0.42954381 1.3983022 -0.86907034 2.79353907 -1.3125 4.1875 C-1.55613281 4.96480469 -1.79976562 5.74210938 -2.05078125 6.54296875 C-2.36402344 7.35378906 -2.67726563 8.16460937 -3 9 C-3.309375 9.9178125 -3.61875 10.835625 -3.9375 11.78125 C-6 14 -6 14 -8.2097168 14.39379883 C-11.05164352 14.49410212 -13.84650933 14.43439069 -16.6875 14.3125 C-17.67556641 14.28994141 -18.66363281 14.26738281 -19.68164062 14.24414062 C-22.12261559 14.18517988 -24.56054868 14.10295048 -27 14 C-27.33 12.68 -27.66 11.36 -28 10 C-22.13320282 7.22660497 -16.17403386 4.91547882 -10.0625 2.75 C-9.30461182 2.47978027 -8.54672363 2.20956055 -7.76586914 1.93115234 C-2.25121835 0 -2.25121835 0 0 0 Z " fill="#384249" transform="translate(68,151)"/>
</svg>
